<?xml version="1.0" standalone="no"?>
<!DOCTYPE svg PUBLIC "-//W3C//DTD SVG 20010904//EN"
 "http://www.w3.org/TR/2001/REC-SVG-20010904/DTD/svg10.dtd">
<svg version="1.0" xmlns="http://www.w3.org/2000/svg"
 width="512.000000pt" height="512.000000pt" viewBox="0 0 512.000000 512.000000"
 preserveAspectRatio="xMidYMid meet">
<metadata>
Created by potrace 1.14, written by Peter Selinger 2001-2017
</metadata>
<g transform="translate(0.000000,512.000000) scale(0.100000,-0.100000)"
fill="#000000" stroke="none">
<path d="M1668 4695 c-2 -2 -63 -5 -135 -6 -121 -2 -201 -9 -308 -24 -22 -3
-56 -8 -75 -11 -19 -2 -46 -7 -60 -10 -14 -3 -36 -8 -50 -11 -50 -9 -195 -46
-205 -52 -5 -3 -12 -6 -15 -6 -25 -3 -130 -41 -130 -47 0 -5 -4 -7 -9 -3 -5 3
-12 1 -16 -5 -4 -6 -11 -8 -16 -5 -5 4 -9 1 -9 -5 0 -6 -4 -9 -9 -6 -5 3 -35
-9 -68 -27 -32 -17 -70 -38 -85 -46 -16 -8 -28 -18 -28 -23 0 -4 -5 -8 -10 -8
-6 0 -16 -4 -23 -10 -7 -5 -31 -25 -55 -44 -48 -39 -109 -109 -125 -143 -6
-13 -14 -23 -19 -23 -4 0 -8 -8 -8 -18 0 -10 -6 -24 -12 -30 -7 -7 -13 -16
-14 -20 0 -4 -7 -20 -14 -37 -7 -16 -14 -34 -16 -40 -1 -5 -9 -29 -18 -52 -8
-24 -13 -43 -9 -43 3 0 1 -6 -4 -12 -9 -11 -21 -54 -39 -138 -3 -14 -7 -34 -9
-45 -9 -41 -14 -64 -21 -112 -3 -26 -8 -57 -10 -68 -2 -11 -7 -47 -10 -80 -3
-33 -7 -71 -9 -83 -14 -87 -20 -279 -20 -622 0 -392 8 -613 30 -835 3 -27 7
-77 10 -110 13 -136 22 -226 31 -285 3 -19 7 -51 9 -70 2 -19 6 -48 9 -65 3
-16 8 -52 11 -80 4 -27 8 -59 10 -70 8 -49 17 -102 21 -125 2 -14 7 -41 10
-60 8 -47 12 -65 14 -65 1 0 3 -9 5 -20 19 -104 30 -145 39 -145 5 0 7 -3 4
-6 -4 -3 -2 -20 4 -37 5 -18 10 -38 12 -45 1 -7 8 -18 14 -24 7 -7 12 -18 12
-25 0 -7 5 -13 10 -13 6 0 10 -7 10 -16 0 -8 6 -21 13 -28 6 -7 26 -30 42 -51
82 -104 225 -201 370 -250 67 -23 173 -40 215 -36 8 1 29 3 45 4 17 1 32 4 35
7 3 3 23 14 45 24 56 25 112 100 110 146 -3 54 -4 58 -18 72 -19 20 -130 169
-150 203 -10 17 -33 59 -51 95 -28 55 -37 79 -51 130 0 3 -4 27 -9 53 -4 27
-10 59 -12 70 -12 56 -5 396 11 497 2 14 7 50 10 80 8 69 34 220 42 240 3 8 7
24 8 35 2 11 6 31 10 45 3 14 7 31 7 38 1 13 18 17 19 5 3 -32 17 -127 24
-157 6 -26 15 -72 21 -111 3 -16 7 -37 11 -45 3 -8 7 -31 10 -50 3 -19 9 -37
14 -38 5 -2 7 -7 5 -11 -3 -4 1 -31 8 -59 8 -28 11 -53 8 -56 -3 -3 0 -6 7 -6
7 0 9 -4 6 -10 -3 -5 -3 -16 2 -22 4 -7 9 -20 10 -29 1 -8 23 -98 48 -200 26
-101 48 -194 51 -206 2 -13 6 -33 9 -45 18 -85 26 -129 31 -173 4 -27 8 -53
10 -57 3 -4 7 -49 9 -100 9 -152 13 -200 26 -258 15 -69 51 -152 78 -179 12
-12 18 -21 15 -21 -4 0 9 -15 28 -32 50 -46 78 -69 78 -63 0 3 10 0 23 -7 12
-7 25 -11 30 -10 4 1 7 -2 7 -6 0 -42 417 -78 582 -50 29 4 63 9 76 10 12 1
22 6 22 10 0 4 7 5 15 2 8 -4 21 -1 29 5 7 6 16 8 19 4 4 -3 7 0 7 7 0 7 3 11
6 7 12 -12 110 48 159 98 91 92 133 218 140 415 1 58 3 108 4 112 1 4 13 5 28
2 14 -3 72 -7 127 -9 56 -2 101 -4 101 -5 0 -1 14 -2 32 -3 17 -1 29 1 26 5
-2 5 6 5 19 0 28 -9 59 -9 75 1 6 4 14 3 18 -2 3 -6 16 -7 28 -3 12 4 35 7 51
7 l29 0 2 -111 c1 -61 8 -133 14 -161 7 -28 13 -57 15 -64 4 -30 56 -129 66
-129 6 0 9 -4 6 -9 -17 -27 164 -153 234 -163 14 -2 30 -6 35 -10 52 -31 506
-30 590 2 14 5 25 7 25 5 0 -10 117 47 160 78 63 45 85 72 124 152 42 87 56
145 61 260 2 50 6 100 9 112 3 13 0 23 -5 23 -6 0 -7 6 -2 13 4 6 8 17 9 22 9
53 15 84 20 105 3 14 7 35 9 46 2 12 8 31 14 43 7 11 9 21 6 21 -3 0 1 16 9
35 8 19 13 35 11 35 -2 0 3 16 11 35 8 19 11 35 8 35 -4 0 -1 6 5 13 6 8 12
22 14 33 1 10 6 24 10 30 4 7 16 38 26 70 11 33 38 109 61 169 22 61 52 139
64 175 13 36 30 79 37 95 7 17 13 32 14 35 1 3 7 16 13 30 l11 25 1 -25 c1
-14 4 -43 6 -65 6 -66 15 -272 18 -405 2 -90 7 -133 18 -155 16 -31 58 -74 58
-60 0 4 6 3 13 -3 19 -16 78 -18 105 -3 12 6 22 9 22 6 0 -11 40 35 55 64 13
26 14 63 10 248 -3 120 -7 236 -9 258 -2 22 -7 84 -11 139 -3 54 -8 106 -10
115 -1 9 -6 50 -10 91 -3 41 -8 82 -10 90 -2 8 -7 40 -10 70 -3 30 -10 78 -15
105 -5 28 -12 66 -14 85 -10 69 -18 115 -23 130 -3 8 -7 26 -9 40 -1 14 -5 36
-8 50 -3 14 -9 39 -12 55 -4 17 -12 36 -18 44 -9 12 -8 13 2 7 11 -7 12 -4 4
10 -10 20 -27 103 -24 117 1 4 -2 7 -7 7 -5 0 -8 8 -6 18 1 9 -1 22 -5 27 -8
12 -18 53 -26 110 -6 50 -12 80 -15 80 -1 0 -3 9 -4 20 -10 65 -13 82 -20 98
-4 10 -5 21 -1 24 3 3 2 11 -3 17 -11 13 -23 61 -23 89 1 9 -3 17 -7 17 -5 0
-12 15 -16 33 -10 44 -10 43 -43 122 -31 74 -83 172 -114 217 -10 14 -18 30
-18 35 0 5 -9 15 -20 23 -11 8 -20 19 -20 25 0 12 -31 48 -128 151 -60 63
-212 184 -231 184 -6 0 -11 4 -11 9 0 5 -10 13 -22 17 -13 4 -25 10 -28 14 -6
8 -124 65 -215 103 -118 49 -337 105 -510 131 -22 3 -51 8 -64 11 -53 10 -227
18 -421 19 -121 1 -210 5 -217 11 -7 6 -19 16 -27 23 -8 6 -19 12 -24 12 -4 0
-17 8 -28 18 -20 18 -69 43 -92 48 -8 1 -22 10 -31 18 -10 9 -24 16 -32 16 -9
0 -24 6 -34 14 -11 8 -25 12 -32 9 -7 -3 -13 -1 -13 3 0 12 -78 36 -91 29 -5
-4 -9 -2 -9 4 0 9 -109 38 -232 61 -88 17 -197 30 -303 36 -55 3 -105 7 -112
9 -6 2 -13 2 -15 0z"/>
</g>
</svg>
